<svg version="1.1" xmlns="http://www.w3.org/2000/svg" style="display: block;" viewBox="0 0 2048 2048" width="512" height="512">
<path transform="translate(0,0)" fill="rgb(51,51,51)" d="M 868.549 729.948 L 1159.49 729.925 C 1230.55 729.926 1268.04 724.891 1304.45 798.084 L 1800.12 798.043 C 1820.28 797.962 1848.18 789.987 1860.86 809.436 C 1865.63 879.141 1819.55 937.272 1755.31 960.635 C 1747.21 1032.68 1711.95 1076.95 1642.37 1102.22 C 1634.99 1165.63 1593.63 1220.38 1530.39 1235.86 C 1505.08 1242.05 1465.68 1239 1438.48 1238.97 L 1304.45 1239.01 C 1285.32 1300.79 1242.51 1319.42 1180.75 1319.37 L 878.149 1319.43 C 804.505 1319.84 773.426 1312.64 741.159 1239.01 L 606.809 1238.99 C 557.55 1239.06 511.263 1244.16 469.436 1212.71 C 430.306 1183.28 414.643 1149.47 408.145 1102.22 C 347.335 1076.87 291.786 1032.7 288.82 960.635 C 233.413 934.795 190.178 884.945 188.165 821.254 C 187.102 787.604 239.306 798.084 263.455 798.074 L 746.187 798.084 C 766.319 740.309 812.571 728.865 868.549 729.948 z"/>
<path transform="translate(0,0)" fill="rgb(0,255,169)" d="M 1306.89 1107.31 L 1614.94 1107.31 C 1609.63 1133.99 1597.47 1157.91 1578.37 1177.28 C 1537.89 1216.6 1492 1211.14 1440.03 1211.14 L 1306.89 1211.1 L 1306.83 1138.32 C 1306.78 1128.77 1304.79 1116.42 1306.89 1107.31 z"/>
<path transform="translate(0,0)" fill="rgb(0,255,169)" d="M 442.654 1107.31 C 507.897 1106.45 573.259 1107.35 638.515 1107.32 L 703.934 1107.24 C 716.276 1107.18 728.868 1106.31 741.159 1107.31 C 741.193 1120.5 742.92 1205.03 739.976 1210.59 L 736.25 1211.1 L 604.66 1211.15 C 581.102 1211.15 554.682 1213.47 531.573 1209.39 C 486.483 1201.44 445.846 1161.31 438.082 1116.2 C 437.522 1112.94 437.088 1110.28 438.976 1107.47 L 442.654 1107.31 z"/>
<path transform="translate(0,0)" fill="rgb(0,255,169)" d="M 317.818 964.901 L 741.159 964.901 L 741.159 1080.17 L 550.256 1080.21 C 446.614 1080.28 348.034 1090.95 317.818 964.901 z"/>
<path transform="translate(0,0)" fill="rgb(0,255,169)" d="M 1306.89 964.901 C 1353.47 964.157 1400.17 964.899 1446.77 964.902 L 1727.5 964.901 C 1722.46 996.229 1710.38 1021.06 1688.71 1044.28 L 1687.51 1045.5 C 1654.32 1078.68 1619.72 1080.44 1576.17 1080.26 L 1306.89 1080.17 L 1306.89 964.901 z"/>
<path transform="translate(0,0)" fill="rgb(0,255,169)" d="M 217.888 826.909 L 741.159 826.909 L 741.159 937.023 L 366.308 937.045 C 349.01 937.045 330.802 938.282 313.713 935.619 C 260.265 927.291 225.16 877.965 217.888 826.909 z"/>
<path transform="translate(0,0)" fill="rgb(0,255,169)" d="M 1306.89 826.909 L 1659.01 826.918 C 1717.54 826.916 1776.28 825.825 1834.79 826.909 C 1830.51 855.362 1818.48 881.243 1798.65 902.089 C 1761.37 937.922 1723.1 937.08 1674.77 937.059 L 1306.89 937.023 L 1306.89 826.909 z"/>
<path transform="translate(0,0)" fill="rgb(254,254,254)" d="M 842.933 759.18 C 920.688 758.216 998.561 759.221 1076.33 759.18 L 1162.16 759.128 C 1289.91 759.069 1279.82 796.082 1279.86 900.691 L 1279.86 1140.98 C 1279.84 1205.32 1290 1268.21 1211.93 1290.83 C 1189.24 1292.32 1165.5 1290.87 1142.69 1290.85 L 893.949 1290.88 C 874.298 1290.89 853.325 1292.28 833.863 1289.6 C 755.25 1278.76 769.868 1191.98 769.916 1135.2 L 769.892 873.553 C 769.894 816.149 770.647 764.766 842.933 759.18 z"/>
<path transform="translate(0,0)" fill="rgb(51,51,51)" d="M 846.886 787.772 L 1159.64 787.72 C 1247.49 787.622 1250.19 786.77 1250.02 878.718 L 1249.98 1140.04 C 1250.01 1191.73 1266.65 1250.99 1200.87 1260.92 C 1118.6 1261.85 1036.22 1260.88 953.934 1260.92 L 877.343 1261.03 C 779.42 1261.17 798.158 1227.39 798.156 1139.28 L 798.183 884.292 C 798.181 842.718 788.499 789.698 846.886 787.772 z"/>
<path transform="translate(0,0)" fill="rgb(0,204,135)" d="M 842.933 818.039 L 1066.26 818.033 C 1092.1 818.022 1203.28 815.437 1218.15 820.816 C 1226.41 828.665 1222.03 856.637 1222.04 867.073 L 1222.03 1117.61 C 1222.05 1141.64 1233.43 1225.78 1206.33 1230.98 L 890.67 1231.05 C 820.179 1231.11 826.803 1236.01 826.901 1171.49 L 826.956 920.611 C 826.952 897.052 815.573 821.344 842.933 818.039 z"/>
<!-- Added horizontal line -->
<line x1="848" y1="955" x2="1200" y2="955" stroke="rgb(51,51,51)" stroke-width="80"/>
</svg>